<?xml version="1.0" encoding="utf-8"?>
<!-- Generator: Adobe Illustrator 25.0.1, SVG Export Plug-In . SVG Version: 6.00 Build 0)  -->
<svg version="1.1" id="レイヤー_1" xmlns="http://www.w3.org/2000/svg" xmlns:xlink="http://www.w3.org/1999/xlink" x="0px"
	 y="0px" viewBox="0 0 32 32" style="enable-background:new 0 0 32 32;" xml:space="preserve">
<style type="text/css">
	.st0{fill:#60195A;stroke:#60195A;stroke-width:0.2337;stroke-miterlimit:10;}
	.st1{fill:#FFFFFF;}
</style>
<rect class="st0" width="32" height="32"/>
<g>
	<path class="st1" d="M19.38,5.71L19.38,5.71c0.24-0.16,0.35-0.34,0.28-0.48c-0.03-0.07-0.16-0.22-0.57-0.07
		c-3.36,1.1-5.74,3.66-7.72,8.31l-0.64,1.52h-0.01l-1.6,3.82c-0.59,1.41-1.09,2.69-1.52,3.83c-1.05,2.71-1.8,4.67-2.96,6.17
		c-0.17,0.23-0.21,0.43-0.09,0.54c0.03,0.03,0.08,0.06,0.16,0.06c0.09,0,0.22-0.04,0.4-0.19c2.46-1.94,4.26-4.69,6.42-9.78
		l0.64-1.51h0.01l1.6-3.82C15.86,9.11,17.22,7.07,19.38,5.71z"/>
	<path class="st1" d="M17.43,2.59c-0.11,0-0.22,0-0.33,0c-7.06,0-11.14,3.5-11.68,5.91c-0.4,1.76-0.06,3,1.01,3.68
		c0.22,0.12,0.33,0.07,0.38,0.01c0.04-0.05,0.09-0.16-0.05-0.35c-0.38-0.54-0.41-1.37-0.08-2.42c1.23-3.86,4.89-5.91,10.58-5.91
		c4.66,0,7.67,1.97,7.67,5.02c0,2.81-2.45,4.85-5.82,4.85c-0.54,0-1.1-0.06-1.67-0.17c-0.05-0.01-0.1-0.02-0.16-0.02
		c-0.22-0.04-0.45-0.08-0.54,0.1c-0.02,0.07-0.02,0.15,0.02,0.21c0.09,0.16,0.33,0.24,0.52,0.28c0.94,0.25,1.97,0.37,3.05,0.37
		c3.32,0,7.19-1.46,7.19-5.57C27.53,5.03,23.57,2.68,17.43,2.59z"/>
</g>
</svg>
